<svg xmlns="http://www.w3.org/2000/svg" width="1128" height="191"><path d="M712 14c3.569 2.793 6.823 5.771 10 9l1.738 1.742C727.893 29.23 734 36.73 734 43l1.8-1.355C749.946 31.328 763.694 27.502 781 29c14.228 2.528 26.38 10.802 34.785 22.48C823.47 63.658 826.15 77.824 823 92l3.75.625c12.58 2.848 22.857 10.015 30.063 20.625 7.274 12.366 9.281 25.195 6.492 39.254-2.006 6.598-5.175 12.015-9.305 17.496l-1.75 2.625c-8.458 8.928-20.823 15.085-33.155 15.51-1.565.009-3.13.013-4.695.012l-2.621.011c-2.898.011-5.795.015-8.693.019l-6.234.02c-6.826.02-13.651.031-20.477.041l-7.058.013c-11.056.019-22.112.033-33.169.041-12.746.01-25.492.036-38.239.077-9.862.03-19.723.045-29.585.048-5.885.002-11.77.011-17.656.036-5.542.024-11.083.028-16.626.018-2.026 0-4.052.005-6.079.02-18.717.12-33.508-2.818-47.604-16.038-11.82-12.29-14.787-25.081-14.57-41.52.367-12.1 6.013-23.284 14.246-32.093C589.053 90.396 599.997 85.539 612 83l-.438-1.695c-3.76-16.242-1.35-32.768 6.547-47.426 10.156-15.465 24.798-25.723 42.7-30.149C678.793.207 696.729 3.906 712 14Z" fill="#00A6FF"/><path d="M543 57h19v129h-19l-1-6-2.625 2.375c-4.664 3.847-9.208 5.069-15.293 4.871-5.155-.61-9.446-2.136-12.957-6.059-7.131-10.697-5.284-25.394-5.255-37.765.005-2.718 0-5.436-.007-8.154-.015-32.103-.015-32.103 6.723-38.858C518.43 91.96 524.944 92.154 532 93c4.767 1.673 6.306 3.306 10 7l1-43Zm-16 58c-.908 2.723-1.14 4.386-1.177 7.193l-.039 2.549-.022 2.746-.025 2.837c-.014 1.98-.024 3.962-.032 5.943a1018.13 1018.13 0 0 1-.105 9.066c-.01 1.926-.019 3.853-.026 5.78l-.053 2.727c.02 5.679.73 8.818 4.479 13.159 2.765 1.053 5.167.791 8 0 3.818-3.622 4.94-6.586 5.161-11.825.02-1.596.034-3.192.042-4.788l.017-2.567c.01-1.793.016-3.586.02-5.38.01-2.732.04-5.464.072-8.196.007-1.744.012-3.488.016-5.232l.038-2.463c-.02-4.923-.654-8.274-3.366-12.549-4.657-3.305-8.616-2.199-13 1Z" fill="#00D6FF"/><path d="M620 64c39.616 0 39.616 0 48.727 8.637 7.6 8.33 8.453 17.313 8.46 28.175l.038 2.909c.02 10.102-1.853 19.217-8.6 27.029-9.875 8.464-17.38 8.25-30.625 8.25v47h-18V64Z" fill="#F8FCFF"/><path d="M808 100c10.052 5.097 10.052 5.097 12 10-7.187 7.936-14.543 15.648-22.186 23.149l-1.857 1.831-1.657 1.622c-1.412 1.386-1.412 1.386-2.3 3.398h-2c4.524 5.593 9.548 10.446 14.859 15.268 5.91 5.384 11.535 11.035 17.141 16.732-9.242 9.634-19.709 13.988-33 14.438-11.388-.286-22.162-4.967-30.484-12.766-4.51-4.804-8.184-9.489-10.516-15.672l-.898-2.332c-3.89-11.33-2.872-23.705 2.257-34.54 2.689-4.662 5.576-8.559 9.641-12.128l1.48-1.453C772.57 96.175 792.852 92.926 808 100Z" fill="#FCFEFF"/><path d="M308.957 58.883c7.525 4.115 11.137 10.613 14.418 18.367.988 5.927.74 11.747.625 17.75h-19l-1.27-8.887c-.914-3.898-2.277-6.93-5.418-9.488-3.564-.963-6.804-.797-10.312.375-3.814 4.675-4.13 9.174-4.161 15.038l-.015 2.16c-.015 2.357-.022 4.714-.027 7.072l-.017 4.92c-.01 3.442-.017 6.882-.02 10.323-.006 4.402-.03 8.803-.058 13.204-.019 3.39-.024 6.78-.026 10.17a779.091 779.091 0 0 1-.024 4.866 657.178 657.178 0 0 0-.008 6.82l-.011 3.916c.403 3.855 1.288 6.254 3.367 9.511 4.296 2.065 6.241 2.236 10.813.813 3.37-1.602 3.37-1.602 5.187-4.813.447-2.216.815-4.448 1.125-6.688L305 148h19c.445 11.227.035 20.303-7.125 29.375-5.296 5.57-12.645 9.19-20.32 9.828-10.49.184-17.93-1.624-25.64-9.008-5.552-6.366-7.064-13.135-7.092-21.38l-.02-2.528c-.02-2.765-.031-5.53-.041-8.295l-.013-2.866c-.02-5.01-.035-10.019-.044-15.028-.011-5.162-.046-10.323-.085-15.484a2098.81 2098.81 0 0 1-.038-11.937 789.498 789.498 0 0 0-.035-5.705c-.025-2.67-.024-5.34-.017-8.012l-.039-2.352c.076-8.044 3.258-15.095 8.661-21.038 10.22-8.686 24.768-10.382 36.805-4.687Z" fill="#20F3DA"/><path d="M437 94h19l.06 6.087c.067 6.638.145 13.275.228 19.913.05 4.024.096 8.048.134 12.073.037 3.884.083 7.768.136 11.651.019 1.482.034 2.963.045 4.445.017 2.076.046 4.15.078 6.227l.04 3.58c.27 2.918.66 4.607 2.279 7.024 2.287 1.144 3.593 1.103 6.125 1.063L469 166c2.533-4.434 3.384-7.65 3.432-12.74l.031-1.953c.03-2.11.04-4.22.049-6.33a2105.456 2105.456 0 0 0 .158-15.984c.03-3.942.076-7.883.121-11.825.086-7.723.152-15.445.209-23.168h19v92h-19l-1-6-1.61 1.277-2.14 1.66-2.11 1.653c-4.308 2.838-9.091 2.93-14.14 2.41-5.21-1.678-8.531-3.76-12-8-2.6-5.099-3.429-9.212-3.34-14.955l-.002-2.308c.002-2.495.025-4.989.049-7.483a2852.63 2852.63 0 0 1 .087-18.892c.03-4.66.044-9.318.06-13.977.032-9.129.084-18.257.146-27.385Z" fill="#00E8FF"/><path d="M413 97c6.157 5.038 10.001 11.14 11 19 .163 3.578.188 7.153.203 10.734l.017 3.131c.01 2.182.016 4.364.02 6.546.01 3.314.041 6.627.072 9.94.007 2.128.012 4.256.016 6.383l.038 2.969c-.03 9.502-1.714 17.618-8.405 24.606-6.937 5.983-14.976 7.32-23.961 6.691-7.97-1.265-14.304-4.682-19.438-11-3.698-7.1-3.87-13.246-3.863-21.117l-.013-3.549c-.005-2.473-.006-4.946-.002-7.418.003-3.77-.02-7.54-.045-11.31-.003-2.408-.003-4.816-.002-7.223l-.028-3.397c.052-8.937 1.532-15.714 7.711-22.447 9.496-8.7 26.016-9.64 36.68-2.539Zm-23 17c-1.755 2.878-2.257 5.066-2.29 8.414l-.04 2.62-.006 2.806-.02 2.906c-.01 2.027-.015 4.053-.015 6.08-.004 3.097-.04 6.192-.078 9.29-.006 1.97-.01 3.94-.012 5.911l-.043 2.8c.03 4.259.127 6.562 2.408 10.257 2.261 2.067 3.084 2.579 6.096 2.478 2.994-.195 3.916-.502 6.438-2.312 3.17-4.566 2.737-9.573 2.765-14.96l.017-2.564c.01-1.787.016-3.574.02-5.36.01-2.724.041-5.447.072-8.17.007-1.74.012-3.48.016-5.22l.038-2.453c-.02-4.914-.66-8.256-3.366-12.523-3.968-2.816-7.982-2.679-12 0Z" fill="#01F2FD"/><path d="M723.625 100.688c6.156 3.81 10.668 9.205 12.977 16.114.536 2.959.517 5.795.512 8.802v1.983c0 2.153-.008 4.306-.016 6.46a6389.53 6389.53 0 0 1-.029 16.286c-.01 4.016-.015 8.03-.02 12.046-.01 7.874-.028 15.747-.049 23.621h-18l-1-7-2.188 2.313c-4.354 4.16-7.067 5.878-13.125 6.187-5.691-.169-9.469-1.69-13.687-5.5-6.383-8.02-5.575-17.22-5-27 .883-7.498 2.945-11.911 8.867-16.66 5.666-3.56 10.417-3.592 16.946-3.465l2.677.027c2.17.024 4.34.06 6.51.098-.087-2.25-.195-4.5-.313-6.75l-.175-3.797c-.52-3.511-.915-5.07-3.512-7.453-1.944-.518-1.944-.518-4-.313l-2.063.075c-2.151.2-2.151.2-4.937 1.238-1.17 2.424-1.17 2.424-2 5l-1 2h-17c.376-7.895 2.05-14.197 7.898-19.828 8.62-6.803 21.461-9.323 31.727-4.484Z" fill="#FAFCFF"/><path d="M336 57h19l.018 4.042c.057 12.552.13 25.104.218 37.656.044 6.453.084 12.907.11 19.36.026 6.225.067 12.45.117 18.674.017 2.378.028 4.757.035 7.135.01 3.324.037 6.647.07 9.97l-.005 3c.02 1.356.02 1.356.038 2.74l.014 2.383c.499 2.643 1.248 3.428 3.385 5.04l5 2v18c-9.92 0-15.696-.24-23.273-6.758-5.064-6.575-5.151-13.574-5.068-21.523v-3.344c.001-3.625.024-7.25.048-10.875.006-2.522.01-5.044.013-7.566.01-5.946.034-11.892.064-17.838.034-6.774.05-13.548.065-20.322.031-13.925.085-27.85.151-41.774Z" fill="#08F3F5"/><path d="M638 81c14 0 14 0 17.75 1.75 5.44 5.44 4.617 11.328 4.625 18.625l.074 3.406c.038 10.64.038 10.64-4.449 15.219-5 2-5 2-18 2V81Z" fill="#02B9FF"/><path d="m713.625 148.938 3.04.027L719 149c.135 2.73.234 5.455.313 8.188l.126 2.33c.092 4.268-.051 5.968-2.709 9.49-3.302 2.41-4.837 2.816-8.793 2.531-2.765-.77-4.462-2.293-6.085-4.629-1.627-3.648-1.737-7.04-.852-10.91 3.196-5.64 6.364-7.135 12.625-7.063Z" fill="#06A5FF"/></svg>